<?xml version="1.0" encoding="UTF-8" standalone="no"?>
<!-- Generator: Adobe Illustrator 18.0.0, SVG Export Plug-In . SVG Version: 6.00 Build 0)  -->

<svg
   xmlns:dc="http://purl.org/dc/elements/1.1/"
   xmlns:cc="http://creativecommons.org/ns#"
   xmlns:rdf="http://www.w3.org/1999/02/22-rdf-syntax-ns#"
   xmlns:svg="http://www.w3.org/2000/svg"
   xmlns="http://www.w3.org/2000/svg"
   xmlns:sodipodi="http://sodipodi.sourceforge.net/DTD/sodipodi-0.dtd"
   xmlns:inkscape="http://www.inkscape.org/namespaces/inkscape"
   version="1.2"
   x="0px"
   y="0px"
   viewBox="0 0 235.1 235.1"
   xml:space="preserve"
   id="svg3828"
   sodipodi:docname="starcounter-official.svg"
   inkscape:version="0.92.2 (5c3e80d, 2017-08-06)"><metadata
     id="metadata3834"><rdf:RDF><cc:Work
         rdf:about=""><dc:format>image/svg+xml</dc:format><dc:type
           rdf:resource="http://purl.org/dc/dcmitype/StillImage" /><dc:title></dc:title></cc:Work></rdf:RDF></metadata><defs
     id="defs3832" /><sodipodi:namedview
     pagecolor="#ffffff"
     bordercolor="#666666"
     borderopacity="1"
     objecttolerance="10"
     gridtolerance="10"
     guidetolerance="10"
     inkscape:pageopacity="0"
     inkscape:pageshadow="2"
     inkscape:window-width="1920"
     inkscape:window-height="1137"
     id="namedview3830"
     showgrid="false"
     inkscape:zoom="4.1173967"
     inkscape:cx="117.55"
     inkscape:cy="117.55"
     inkscape:window-x="1912"
     inkscape:window-y="-8"
     inkscape:window-maximized="1"
     inkscape:current-layer="g3821" /><g
     id="Horizontal"><g
       id="Lightspeed_database" /><g
       id="Starcounter_1_"><g
         id="g3821"><circle
           cx="117.5"
           cy="117.5"
           r="117.5"
           id="circle3805"
           fill="#FFFFFF" /><path
           d="M4,103.3c-0.6,4.7-0.9,9.4-0.9,14.2c0,30.8,12.2,58.7,32,79.3c7.5-7.6,15.1-15,22.3-22.2     c24.5-24.3,47.7-47.3,63.3-65.4c21-24.3,21.6-32.3,20.1-35l-0.1-0.1c-1.4-2.7-6.7-3.3-10.9-3.3C110.4,70.8,70.5,82.3,4,103.3z"
           id="path3807"
           fill="#F7B717"
           style="fill:#ececec" /><path
           d="M39.8,201.4c20.4,19,47.8,30.6,77.8,30.6c1.1,0,2.3,0,3.4-0.1c36.2-74.1,62.3-127.5,51.1-135.4     c-0.8-0.6-1.9-0.9-3.3-0.9c-18.7,0-70.2,49.5-107.9,85.6C53.5,188.3,46.4,195.1,39.8,201.4z"
           id="path3809"
           fill="#F27E20"
           style="fill:#bebebe;fill-opacity:1" /><path
           d="M200.7,110.5c-11.3,0-31.7,40.5-65.6,107.7c-2.2,4.3-4.4,8.7-6.7,13.3c32.4-3.1,60.8-19.7,79.7-44.1     c0-10-0.3-24.4-0.8-42.4l-0.1-5.3c-0.8-25.1-4-29.1-5.9-29.2l-0.1,0C201,110.5,200.8,110.5,200.7,110.5z"
           id="path3811"
           fill="#F27E20"
           style="fill:#bebebe;fill-opacity:1" /><path
           d="M225.4,108.6c-1.6,0-5.3,3.4-6.3,13.6c-1.3,13.7-2.2,30.2-3.3,49.4c-0.1,1.6-0.2,3.3-0.3,4.9     c10.4-17.2,16.4-37.5,16.4-59c0,0,0-0.1,0-0.1l-4.4-7C226.9,109.3,226.1,108.6,225.4,108.6z"
           id="path3813"
           fill="#F27E20"
           style="fill:#bebebe;fill-opacity:1" /><path
           d="M54.6,22C29.2,38.8,10.9,65.4,5.1,96.4C40.8,84.8,76.5,73,99.8,63.5c29.4-12,32.6-17.7,32.6-19.6     C132.4,35.5,110.6,29.4,54.6,22z"
           id="path3815"
           fill="#F27E20"
           style="fill:#bebebe;fill-opacity:1" /><path
           d="M64,16.4c26.2,2.9,48.6,5.2,62.9,5.4c9.8,0,12.2-1.8,13.2-3.3c0.6-1.1,0.5-2.3,0.3-3.1     c-0.6-2.4-2.8-4.8-5.9-6.6l-9.3-5.4c-2.5-0.2-5.1-0.3-7.7-0.3C98.2,3.1,80,7.9,64,16.4z"
           id="path3817"
           fill="#F27E20"
           style="fill:#bebebe;fill-opacity:1" /><circle
           cx="117.5"
           cy="117.5"
           r="117.5"
           id="circle3819"
           fill="none" /></g></g></g><g
     id="Vertical"><g
       id="Starcounter" /><g
       id="Lightspeed_Database" /></g></svg>