<?xml version="1.0" encoding="UTF-8" standalone="no"?>
<!-- Generator: Adobe Illustrator 18.0.0, SVG Export Plug-In . SVG Version: 6.00 Build 0)  -->

<svg
   xmlns:dc="http://purl.org/dc/elements/1.1/"
   xmlns:cc="http://creativecommons.org/ns#"
   xmlns:rdf="http://www.w3.org/1999/02/22-rdf-syntax-ns#"
   xmlns:svg="http://www.w3.org/2000/svg"
   xmlns="http://www.w3.org/2000/svg"
   xmlns:sodipodi="http://sodipodi.sourceforge.net/DTD/sodipodi-0.dtd"
   xmlns:inkscape="http://www.inkscape.org/namespaces/inkscape"
   version="1.2"
   x="0px"
   y="0px"
   viewBox="0 0 16 16"
   xml:space="preserve"
   id="svg3828"
   sodipodi:docname="starcounter-official.svg"
   inkscape:version="0.92.2 (5c3e80d, 2017-08-06)"
   width="16"
   height="16"><metadata
     id="metadata3834"><rdf:RDF><cc:Work
         rdf:about=""><dc:format>image/svg+xml</dc:format><dc:type
           rdf:resource="http://purl.org/dc/dcmitype/StillImage" /><dc:title></dc:title></cc:Work></rdf:RDF></metadata><defs
     id="defs3832" /><sodipodi:namedview
     pagecolor="#ffffff"
     bordercolor="#666666"
     borderopacity="1"
     objecttolerance="10"
     gridtolerance="10"
     guidetolerance="10"
     inkscape:pageopacity="0"
     inkscape:pageshadow="2"
     inkscape:window-width="1920"
     inkscape:window-height="1137"
     id="namedview3830"
     showgrid="false"
     inkscape:zoom="64"
     inkscape:cx="10.175605"
     inkscape:cy="9.0957387"
     inkscape:window-x="1912"
     inkscape:window-y="-8"
     inkscape:window-maximized="1"
     inkscape:current-layer="Starcounter_1_" /><g
     id="Horizontal"
     transform="translate(0,-219.10001)"><g
       id="Lightspeed_database" /><g
       id="Starcounter_1_"><g
         id="g3821"
         transform="matrix(0.06808511,0,0,0.06808511,0,219.10001)"><circle
           cx="117.5"
           cy="117.5"
           r="117.5"
           id="circle3805"
           style="fill:#ffffff" /><path
           d="m 4,103.3 c -0.6,4.7 -0.9,9.4 -0.9,14.2 0,30.8 12.2,58.7 32,79.3 7.5,-7.6 15.1,-15 22.3,-22.2 24.5,-24.3 47.7,-47.3 63.3,-65.4 21,-24.3 21.6,-32.3 20.1,-35 l -0.1,-0.1 C 139.3,71.4 134,70.8 129.8,70.8 110.4,70.8 70.5,82.3 4,103.3 Z"
           id="path3807"
           style="fill:#ececec"
           inkscape:connector-curvature="0" /><path
           d="m 39.8,201.4 c 20.4,19 47.8,30.6 77.8,30.6 1.1,0 2.3,0 3.4,-0.1 36.2,-74.1 62.3,-127.5 51.1,-135.4 -0.8,-0.6 -1.9,-0.9 -3.3,-0.9 -18.7,0 -70.2,49.5 -107.9,85.6 -7.4,7.1 -14.5,13.9 -21.1,20.2 z"
           id="path3809"
           style="fill:#bebebe;fill-opacity:1"
           inkscape:connector-curvature="0" /><path
           d="m 200.7,110.5 c -11.3,0 -31.7,40.5 -65.6,107.7 -2.2,4.3 -4.4,8.7 -6.7,13.3 32.4,-3.1 60.8,-19.7 79.7,-44.1 0,-10 -0.3,-24.4 -0.8,-42.4 l -0.1,-5.3 c -0.8,-25.1 -4,-29.1 -5.9,-29.2 h -0.1 c -0.2,0 -0.4,0 -0.5,0 z"
           id="path3811"
           style="fill:#bebebe;fill-opacity:1"
           inkscape:connector-curvature="0" /><path
           d="m 225.4,108.6 c -1.6,0 -5.3,3.4 -6.3,13.6 -1.3,13.7 -2.2,30.2 -3.3,49.4 -0.1,1.6 -0.2,3.3 -0.3,4.9 10.4,-17.2 16.4,-37.5 16.4,-59 0,0 0,-0.1 0,-0.1 l -4.4,-7 c -0.6,-1.1 -1.4,-1.8 -2.1,-1.8 z"
           id="path3813"
           style="fill:#bebebe;fill-opacity:1"
           inkscape:connector-curvature="0" /><path
           d="M 54.6,22 C 29.2,38.8 10.9,65.4 5.1,96.4 40.8,84.8 76.5,73 99.8,63.5 129.2,51.5 132.4,45.8 132.4,43.9 132.4,35.5 110.6,29.4 54.6,22 Z"
           id="path3815"
           style="fill:#bebebe;fill-opacity:1"
           inkscape:connector-curvature="0" /><path
           d="m 64,16.4 c 26.2,2.9 48.6,5.2 62.9,5.4 9.8,0 12.2,-1.8 13.2,-3.3 0.6,-1.1 0.5,-2.3 0.3,-3.1 -0.6,-2.4 -2.8,-4.8 -5.9,-6.6 L 125.2,3.4 C 122.7,3.2 120.1,3.1 117.5,3.1 98.2,3.1 80,7.9 64,16.4 Z"
           id="path3817"
           style="fill:#bebebe;fill-opacity:1"
           inkscape:connector-curvature="0" /><circle
           cx="117.5"
           cy="117.5"
           r="117.5"
           id="circle3819"
           style="fill:none" /></g></g></g><g
     id="Vertical"
     transform="translate(0,-219.10001)"><g
       id="Starcounter" /><g
       id="Lightspeed_Database" /></g></svg>